<svg xmlns="http://www.w3.org/2000/svg" xmlns:xlink="http://www.w3.org/1999/xlink" viewBox="0 0 118.83 87.9"><defs><style>.cls-1{fill:url(#Degradado_sin_nombre_6);}.cls-2{fill:url(#Degradado_sin_nombre_2);}.cls-3{fill:url(#Degradado_sin_nombre_2-2);}</style><linearGradient id="Degradado_sin_nombre_6" x1="126.19" y1="200" x2="239.44" y2="200" gradientUnits="userSpaceOnUse"><stop offset="0" stop-color="#073e98"/><stop offset="0.43" stop-color="#062688"/><stop offset="1" stop-color="#04006f"/></linearGradient><linearGradient id="Degradado_sin_nombre_2" x1="188.39" y1="210.84" x2="188.39" y2="282.84" gradientUnits="userSpaceOnUse"><stop offset="0" stop-color="#eec32d"/><stop offset="0.2" stop-color="#efab2d"/><stop offset="0.62" stop-color="#f36e2b"/><stop offset="1" stop-color="#f6322a"/></linearGradient><linearGradient id="Degradado_sin_nombre_2-2" x1="181.9" y1="210.84" x2="181.9" y2="282.84" xlink:href="#Degradado_sin_nombre_2"/></defs><title>logo</title><g id="OBJECTS"><path class="cls-1" d="M144.08,178.1a9.36,9.36,0,1,0-.09,8h82a5.41,5.41,0,0,1,5.42,5.41v35.86a12.39,12.39,0,0,1,4.21-.74,12.18,12.18,0,0,1,3.79.6V183.51A5.41,5.41,0,0,0,234,178.1Zm-8.37,7.54a3.51,3.51,0,1,1,3.5-3.5A3.5,3.5,0,0,1,135.71,185.64Z" transform="translate(-126.19 -172.63)"/><path class="cls-2" d="M235.58,229.63a9.36,9.36,0,0,0-8.36,5.29H215.69a4,4,0,0,1-4-4V222a4.13,4.13,0,0,0-4.13-4.13h0a4.13,4.13,0,0,0-4.12,4.13v8.95a4,4,0,0,1-4,4h0a4,4,0,0,1-4-4V219.13a4.13,4.13,0,0,0-4.13-4.12h0a4.13,4.13,0,0,0-4.12,4.12v11.79a4,4,0,0,1-4,4h0a4,4,0,0,1-4-4V204.63a4.13,4.13,0,0,0-4.13-4.12h0a4.13,4.13,0,0,0-4.12,4.12v26.29a4,4,0,0,1-4,4h0a4,4,0,0,1-4-4V213.51a4.13,4.13,0,0,0-4.13-4.13h0a4.13,4.13,0,0,0-4.12,4.13v17.41a4,4,0,0,1-4,4h-5.5a5.42,5.42,0,0,1-5.42-5.42V194.3a12.79,12.79,0,0,1-8,.28V237.5a5.42,5.42,0,0,0,5.42,5.42h89.94a9.38,9.38,0,1,0,8.45-13.29Zm0,13a3.5,3.5,0,1,1,3.5-3.5A3.5,3.5,0,0,1,235.58,242.59Z" transform="translate(-126.19 -172.63)"/><path class="cls-3" d="M201.48,260.53H162.31a4.5,4.5,0,0,1-4.5-4.5h0a4.51,4.51,0,0,1,4.5-4.5h39.17A4.5,4.5,0,0,1,206,256h0A4.49,4.49,0,0,1,201.48,260.53Z" transform="translate(-126.19 -172.63)"/></g></svg>